<svg xmlns="http://www.w3.org/2000/svg" viewBox="0 0 48 32"><g fill="none"><rect width="48" height="32" fill="#233CCC" rx="4"/><path fill="#233CCC" d="M14.55 16h6.68l-6.68-4.45zM9.45 4.45V0H4a4 4 0 00-1 .15l6.45 4.3zM24 5.36V1.84l-5.27 3.52zM2.79 16h6.66v-4.45zM21.21 0h-6.66v4.45zM.47 2.16A4 4 0 000 4v1.36h5.26L.47 2.16zM24 14.15v-3.51h-5.26zM0 10.64v3.52l5.27-3.52z"/><path fill="#F6F4F9" d="M9.45 4.45L3 .15A4 4 0 001.42 1a4 4 0 00-.95 1.2l4.8 3.2H0v1.08h10.48V0h-1l-.03 4.45zM0 9.52v1.12h5.27L0 14.16V16h2.79l6.66-4.45V16h1.03V9.52H9.45zm13.52 0V16h1.03v-4.45L21.23 16H24v-1.85l-5.26-3.51H24V9.52h-9.45zM22.24 0h-1.03l-6.66 4.45V0h-1.03v6.48H24V5.36h-5.27L24 1.84V0z"/><path fill="#F6F4F9" d="M14.55 6.48h-1.03V0h-3.04v6.48H0v3.04h10.48V16h3.04V9.52H24V6.48z"/><path fill="#F6F4F9" d="M14.55 5.36h1.44L24 .01V0h-1.76l-7.69 5.13z"/><path fill="#FF1744" d="M.74 1.7l5.49 3.66H8L1.42 1a4 4 0 00-.68.7z"/><path fill="#FF1744" d="M14.55 6.48h-1.03V0h-3.04v6.48H0v3.04h10.48V16h3.04V9.52H24V6.48z"/><path fill="#FF1744" d="M9.45 10.64H8.07L.05 16h1.77l7.63-5.09zm5.1-5.28h1.44L24 .01V0h-1.76l-7.69 5.13zm1.38 5.28L23.98 16H24v-1.17l-6.29-4.19z"/><path fill="#F6F4F9" d="M36 3.52l.45 1.12 1.15-.35-.6 1.05 1 .68-1.2.19.09 1.2-.89-.82-.89.82.09-1.2-1.2-.19 1-.68-.6-1.05 1.15.35zm5 6l.45 1.12 1.15-.35-.6 1.05 1 .68-1.2.19.09 1.2-.89-.82-.89.82.09-1.2-1.2-.19 1-.68-.6-1.05 1.15.35zm-11 3l.45 1.12 1.15-.35-.6 1.05 1 .68-1.2.19.09 1.2-.89-.82-.89.82.09-1.2-1.2-.19 1-.68-.6-1.05 1.15.35zm6 12l.45 1.12 1.15-.35-.6 1.05 1 .68-1.2.19.09 1.2-.89-.82-.89.82.09-1.2-1.2-.19 1-.68-.6-1.05 1.15.35zm-24-3.95l.89 2.25 2.32-.71-1.21 2.1 2 1.37-2.4.37.18 2.41L12 26.72l-1.78 1.64.18-2.41-2.4-.37 2-1.37-1.21-2.1 2.32.71zm27-3.65l.32.64.71.1-.51.51.12.71-.64-.34-.64.34.12-.71-.51-.51.71-.1z"/><path fill="#2C283A" d="M44 1a3 3 0 013 3v24a3 3 0 01-3 3H4a3 3 0 01-3-3V4a3 3 0 013-3h40zm0-1H4a4 4 0 00-4 4v24a4 4 0 004 4h40a4 4 0 004-4V4a4 4 0 00-4-4z" opacity=".08"/></g></svg>