<svg xmlns="http://www.w3.org/2000/svg" xmlns:xlink="http://www.w3.org/1999/xlink" viewBox="0 0 48 32"><defs><rect id="a" width="48" height="32" x="0" y="0" rx="4"/></defs><g fill="none" fill-rule="evenodd"><mask id="b" fill="#fff"><use xlink:href="#a"/></mask><use fill="#F6F4F9" fill-rule="nonzero" xlink:href="#a"/><path fill="#A6A6A6" fill-rule="nonzero" d="M8.06 33.08l.15.03.13.12.18.2.33.14.3.07-.03.12-.18.02-.14-.1h-.34.34l-.02.1-.14.09h-.1l-.12-.03-.19-.08-.22-.04-.32-.14-.26-.13-.41-.3.19.06.36.17.3.1.05-.12v-.18l.14-.1zm51.85-3.15l-.04.11-.04.11.24-.1-.02.1-.09.12-.18.12-.3.19-.19.1-.02.13h-.17l-.26.1-.2.17-.35.27-.26.11-.17.08h-.2l-.06-.1h-.21l.04-.1.28-.2.47-.26.19-.05.23-.1.3-.13.23-.14.25-.2.14-.06.14-.14.25-.13zm-6.18.06l.13.02.15.1.15-.05.2-.05.12.02-.2.31-.13.1-.16.2-.03-.07-.28.18h-.03l-.13-.02.02-.22.09-.17.02-.23.08-.12zm7.27-1.7l.04.15.13.07-.08.24-.02.29.12-.19.05.08-.1.2.13.1.14.02.2-.11.08.04-.22.24-.17.16-.16-.01-.12.08-.07.12-.07.05-.19.14-.25.18-.25.1.02-.06-.06-.04.3-.22.03-.14-.16-.11.07-.1.23-.1.18-.2.1-.18.02-.19.04-.04-.04-.12-.03-.24.02-.2.1-.02zm-5.16-6.4l.05.13v.16l.06.03-.01.12.07.13v.16l-.03.1.05.2.17-.1.06.12.1.1-.05.12v.24l.02.13.05.03.02.23-.06.14.04.19.23.13.13.13.13.12-.04.06.1.17.02.3.1-.06.07.11.07-.04-.03.29.12.16.08.1.12.22v.22l-.05.16-.07.16.03.23-.1.24-.1.12-.16.25-.06.15-.13.19-.21.24-.23.13-.18.22-.14.13-.19.23-.15.14-.17.2-.12.2-.04.08-.18.1h-.25l-.27.12-.16.1-.2.12-.11-.12-.12-.05.12-.14-.15.05-.3.2-.15-.08-.1-.04-.12-.02-.17-.08-.06-.17.06-.2.02-.14-.06-.11-.2-.04.14-.13.04-.2-.2.18-.22.06.19-.15.1-.16.15-.13.06-.2-.28.23-.18.09-.18.21-.13-.1.07-.15-.05-.2-.08-.1.07-.06-.23-.16h-.15l-.17-.14-.42.02-.33.1-.3.1-.2-.03-.3.14-.21.06-.1.14-.13.11-.2.01-.15.03-.17-.05-.18.03h-.16l-.19.15-.06-.01-.14.08-.14.08h-.31l-.17-.18-.1-.05.06-.16.12-.03.06-.07.03-.1.1-.18.02-.16-.03-.27.02-.15.05-.16-.04-.17.02-.08-.07-.1.02-.22-.07-.2v-.13l.06.12-.01-.25.1.08.04.1.03-.14-.07-.2v-.1l-.04-.07.05-.16.06-.06.06-.14v-.16l.14-.2-.02.21.13-.18.2-.1.14-.1.2-.1.1-.03.06.04.2-.1.15-.03.05-.06.06-.03.13.01.26-.08.15-.12.08-.14.16-.14.03-.1.04-.16.2-.22.06.23.1-.05-.05-.13.09-.13.1.05.06-.2.14-.13.08-.1.12-.05.02-.08.1.03.01-.07.11-.03.12-.04.15.12.11.16h.15l.14.03-.02-.15.14-.21.12-.08-.03-.06.12-.16.16-.09.11.03.2-.05.02-.14-.17-.08.14-.04.14.06.12.11.19.07.07-.03.14.09.15-.08.08.02.06-.05.1.14-.09.14-.1.1-.09.02.02.1-.1.14-.1.13v.08l.17.15.17.08.1.1.14.16h.07l.1.06.03.09.2.09.18-.1.07-.14.07-.12.06-.15.1-.2v-.14l.02-.08v-.15l.06-.2.06-.06-.03-.09.08-.14.06-.15.02-.08.1-.1zM38.14-.96l.35.06-.15.05.4.03.17.1.08-.05h.45l.49.1.23.08.1.1-.1.07-.27.12-.05.06.24.03.3.05.1-.03.25.13V-.1l.22-.04.57.04.16.1.73.03-.2-.16.4.04h.25l.42.1.25.14.02.1.42.17.38.1-.13-.24.4.1.2-.06.42.07.04-.07.32.03-.4-.2.1-.1L47 .2l.32.13.68.17.63-.04.39.03.27.1.22.16.3.07.17-.05h.3l.38.04.29-.03.6.2.1-.07-.35-.15-.08-.1.64.07.34-.02.66.11.4.1 1.4.93-.1.1-.25-.01.34.12.39.2.17.07.16.1.04.06-.41-.05-.28.18-.13.03-.06.17-.09.15.07.11-.48-.17-.26.2-.2-.1-.05.1-.3-.03.13.17.05.24.12.1.29.06.38.36-.18.01.15.21.2.11-.21.13.22.3-.24.06.2.26-.07.24-.25-.18-.44-.37-.68-.57-.27-.35v-.15l-.11-.12.24-.05-.01-.32.03-.25.1-.2-.27-.34-.2.02.13.2-.15.27-.51-.3-.39.08v.41l.33.15-.36.07-.27.03-.18-.19-.33-.03-.11.12-.63-.04-.56.07-.14.49-.21.6.34.03.24.16.24.05.02-.13.23.02.54.28.2.22.06.26.23.31.22.42-.04.38.05.18-.08.3-.09.31-.04.16-.19.15h-.13l-.22-.12-.17.19.02.08-.06-.05-.08-.13.08.13-.14-.08.14.08.06.05-.1-.01-.03.08-.01.1.11.18-.08.06v.05l-.05.08-.12.04-.06.07.05.12v.03l.1.04.19.12.34.32.14.18.15.32-.02.15-.18.05-.14.12-.19.02-.09-.15-.04-.2-.22-.3.14-.04-.26-.23-.13-.06v.06l-.06.02-.03-.05-.07-.03-.08-.04v-.12l.04-.03-.05-.05-.01-.15-.04-.04-.14-.03-.14-.07-.27.08-.1.12-.2.08.06-.13-.1-.1.08-.18-.19-.14-.14.09-.15.19-.05.17-.21.01-.06.13.2.18.2.05.07.12.2.08.17-.2.24.11.15.01.1.14-.28.08-.05.15-.16.13-.04.2.3.15.2.26.23.25.23.2.07.2-.12.08.1.14.16.09.04.21v.22l-.12.02-.09.29-.1.36-.13.32-.27.25-.28.22-.26.03-.12.13-.1-.1-.1.14-.3.14-.24.03-.04.29-.12.02-.1-.2.04-.1-.32-.09-.1.04-.28.24-.16.25-.02.19.23.28.27.35.24.17.17.22.17.5.01.46-.18.18-.26.18-.17.22-.28.25-.1-.17.06-.18-.2-.16-.2-.04-.1-.14-.14-.28-.23-.12h-.2l.02-.2h-.21v.3l-.09.39-.06.24.03.2h.16l.11.25.06.23.14.15.14.03.13.14.06.03.15.16.1.18.03.18-.02.13.02.09.02.16.1.07.1.24-.01.09-.17.02-.23-.2-.28-.21-.04-.14-.14-.18-.04-.23-.1-.14.02-.2-.06-.11-.1-.1-.05-.14-.13-.15-.12-.13-.03.16-.05-.15v-.17l.06-.25-.03-.2.05-.21-.1-.16v-.3l-.11-.13-.11-.33-.08-.34-.14-.22-.13.13-.25.2-.13-.03-.15-.06.03-.34-.08-.25-.23-.3.02-.1-.14-.04-.2-.22-.08-.14-.04-.14-.06-.13-.12-.15-.21-.01.03.1-.05.16-.1-.06-.03.05-.07-.03-.1-.02-.07-.22-.1-.2.1.2.07.22-.02.1h-.16l-.28.05.04.2-.1.16-.31.18-.23.32-.15.17-.21.18v.12l-.1.07-.2.1H41l-.05.21.08.35.03.23-.08.25.03.46-.12.01-.1.2.08.1-.21.07-.08.19-.09.07-.23-.25-.13-.38-.1-.27-.1-.12-.15-.26-.08-.34-.06-.17-.24-.37-.15-.52-.1-.34-.04-.33-.08-.25-.32.16-.17-.04-.34-.32.1-.1-.07-.1-.3-.23-.18-.07-.1-.2-.2-.2-.42.05h-.37l-.33.04-.44-.08-.26-.06-.26-.03-.14-.33-.12-.05-.17.05-.21.13-.3-.1-.26-.2-.23-.07-.18-.26-.22-.36-.11.04-.16-.09-.07.11-.14-.02-.16-.02-.13.26-.41-.02.41.02.13-.26.16.02.06.12-.01.07.1.2.11.23.13.06.05.1.17.1.02.12-.01.1.04.08.07.08.04.09.04.06-.03-.2.04-.14.06-.03.08.09.02.16-.03.16.05.1.04-.01.02.07.17-.05.2.01.14.01.14-.18.15-.17.13-.17.06-.1.03.03-.01.11-.02.05.05.22.12.18.14.1.18.03.14.05.12.16.07.09.09.03V13l-.07.16-.03.08-.09.08-.07.19-.1-.02-.05.07-.02.13.04.18-.02.03h-.11l-.14.1v.14l-.06.05h-.14l-.1.07.02.1-.11.08-.13-.02-.15.09-.1.01-.17.07-.04.13v.09l-.23.11-.37.13-.2.19-.1.01-.07-.02-.13.12-.15.05-.2.01-.06.02-.05.07-.06.02-.03.07h-.12l-.07.03-.17-.01-.07-.16v-.15l-.04-.08-.05-.2-.08-.1.05-.02-.03-.12.03-.06-.02-.11-.04-.12-.07-.08-.03-.1-.13-.1-.13-.23-.08-.22-.18-.19-.1-.04-.17-.26-.04-.18v-.16l-.15-.3-.12-.1-.13-.06-.09-.16.01-.06-.07-.14-.07-.06-.1-.2-.16-.21-.14-.19h-.11l.02-.15v-.1l.02-.1-.01-.04-.06.11-.03.2-.05.14-.05.05-.08-.08-.11-.13-.2-.38-.02.02.12.29.16.27.2.42.1.14.09.16.22.3-.04.04.02.18.28.24.05.05.09.27-.05.05.05.27.1.32.1.07.13.1.15.31.08.25.13.13.34.26.13.15.14.16.08.09.12.08.06.08v.11l-.14.07.1.07.08.05.06.11.1.11h.12l.22-.06.26-.04.2-.08.12-.02.08-.04.14-.01.08-.01.1-.04.12-.03.11-.09h.1v.07l-.02.16.01.14-.04.1-.06.29-.1.3-.14.35-.2.4-.2.3-.26.36-.24.22-.35.27-.23.2-.25.33-.06.14-.05.06-.17.1-.06.12-.1.02-.03.2-.08.1-.05.18-.1.09-.1.33v.15l.15.1v.07l-.06.16.01.09-.02.13.08.16.1.27.08.06.03.12-.01.27.01.23v.42l.03.14-.08.19-.1.18-.16.17-.22.1-.27.14-.28.29-.1.04-.17.2-.1.06-.03.2.1.2.04.15v.08l.04-.01-.02.26-.05.13.06.04-.04.11-.1.1-.2.1-.3.14-.1.1.01.11.06.02-.03.14-.07.2-.05.22-.07.12-.16.14-.05.04-.1.14-.08.13-.15.2-.28.27-.17.16-.19.13-.24.1-.12.01-.03.08-.13-.04-.12.05-.24-.05-.14.03-.1-.01-.23.1-.2.05-.14.1h-.1l-.1-.09h-.07l-.09-.13-.01.04-.03-.07.01-.16-.06-.18.07-.05.01-.2-.13-.26-.1-.22-.16-.35-.16-.2-.08-.2-.05-.27-.05-.2-.06-.4v-.33l-.03-.15-.09-.1-.11-.23-.12-.32-.05-.17-.18-.27-.01-.2-.02-.17.04-.23.08-.25.01-.12.08-.24.06-.11.14-.18.07-.12.03-.2-.01-.15-.07-.1-.06-.16-.06-.16.02-.06.07-.1-.07-.26-.05-.19-.11-.17.02-.05.1-.03h.07l.08-.03-.08.03h-.08l-.1.03-.03-.08-.06-.2.1-.12.07-.05.09.1-.09-.1-.07.05-.1.11-.2-.28.2-.15-.1-.18.08-.06.16-.04.02-.11-.02.11-.16.04-.08.06.1.18-.2.15-.24-.27-.15-.22-.15-.28.01-.1.06-.08.05-.2.05-.2-.04-.03.08-.3.03-.22-.1-.18-.1-.04-.05-.12-.06-.04v-.08l.06-.19.11-.25.07-.01.14-.16-.14.16h-.07l-.11.26-.06.2-.25.1-.08-.02-.1.06-.19-.01-.12-.17-.08-.2-.17-.17h-.39l-.2.04-.19.05-.37.16-.13.09-.21.08-.22-.08.01-.1v.1h-.12l-.16-.05H21l-.28.05-.17.08-.23.1h-.11l-.25-.13-.21-.2-.2-.16-.16-.17-.07-.02-.17-.1-.12-.15-.04-.1-.03-.2-.1-.16-.09-.1-.06-.04-.06-.05-.03-.12-.03-.06-.07-.05-.12-.1-.1-.03-.06-.07v-.04l-.07-.06v-.06l-.04-.2.03-.12-.1-.21-.11-.1.1-.05.12-.19.06-.14-.02-.14.07-.14.04-.25-.02-.26-.03-.14.03-.13-.06-.13-.12-.12.05-.09-.05.1.01-.12.02-.13.1-.07.07-.14-.01-.1.08-.18.13-.17.08-.04.07-.16.01-.14.09-.17.16-.1.15-.28.12-.1.22-.03.18-.19.12-.07.2-.22-.05-.34.09-.23.04-.14.15-.18.22-.13.17-.1.16-.29.08-.16h.16l.13.1h.21l.24.05h.1l.21-.14.24-.05.15-.11.2-.09.39-.05.36-.02.12.04.2-.1h.24l.1.06.15-.02.23-.11.16.03v.14l.18-.1.02.05-.1.14v.12l.08.07-.02.24-.15.13.05.15h.12l.06.13.09.05v.2l-.12.08-.06.08-.16.11.03.11-.03-.11.16-.1.06-.09.11-.08v-.2l.28.09.09-.02.2.04.3.12.12.24.2.05.33.12.25.13.1-.07.1-.13-.06-.2.07-.13.15-.13.15-.03.31.05.09.12h.08l.08.05.23.03.06.09h.3l.23.06.23.08.1.05.17-.09.1-.07.2-.03.16.03.07.14.05-.09.18.06.18.02.1-.07.06-.09-.01-.01.04-.13.03-.2.02-.07h.08-.07l.06-.22.08-.2-.04-.21.04-.11.05-.06.06-.06-.01-.16.08.06-.08-.06v.16l-.05.06-.05.06-.1-.13.08-.1-.14.02-.2-.06-.12.16-.34.03-.2-.15h-.24l-.04.1-.15.04-.23-.15h-.24l-.16-.27-.18-.15.09-.2-.16-.14.22-.25.33-.01.07-.2.42.03.24-.17.24-.07.36-.01.41.18.33.1.25-.04.19.03.23-.14.01-.11-.09-.18-.14-.1-.13-.03-.1-.08-.3-.21-.27-.1-.2-.16.14-.04.13-.22-.13-.1.28-.11-.01-.06-.18.05-.02-.12.02.12-.17.02-.12.08-.2.02-.16.1.04.16.11.06.22-.02-.03.1-.22.04-.27.16-.12-.06.02-.12-.24-.08.03-.05.19-.09-.08-.06-.33-.06-.03-.1-.2.03-.05.15-.14.2.02.06-.1.05-.07-.02-.01.32-.13-.03-.17-.1-.25.06-.09.07.1-.07.24-.06.17.1.13.03-.1.1-.05.19.09.15h-.03.03l.03.1.2.08-.03.07-.25.01-.09.08-.16.15-.08-.13V8h-.14l-.12-.03-.26.06.17.16-.1.04h-.13l-.13-.14-.04.06.07.16.12.13-.08.05.14.13.11.08.02.15-.21-.07.08.14-.14.03.1.24h-.14l-.2-.12-.1-.21-.05-.18-.1-.13-.12-.15-.02-.08-.04-.02-.01-.06-.13-.09-.03-.12v-.19l.03-.08-.04-.04-.05-.02-.07-.09-.1-.05.03-.04.01-.14.07-.06.03-.03.05-.01-.05.01-.03.03-.07.06-.02.14-.02.04-.2-.1-.14-.09-.2-.07-.2-.2.05-.02-.11-.1-.01-.09-.14-.04-.06.1-.07-.08v-.09l.06-.03-.18-.03-.16.09.01.13-.02.07.08.13.21.14.12.21.26.21h.17l.05.06-.05.05.2.1.16.08.2.13.03.05-.03.1-.14-.13-.19-.04-.08.18.17.1-.02.13-.09.02-.1.24-.1.02V8.7l.04-.15.04-.05-.1-.16-.07-.13-.1-.04-.07-.11-.14-.05-.1-.1-.16-.02-.18-.12-.2-.17-.16-.15-.08-.26-.11-.03-.18-.09-.1.04-.11.12-.1.02.03-.11-.12-.04-.06-.2.07-.08-.06-.1v-.07l-.07-.12-.1.04v-.12l.14-.14v-.07l.1.02.05-.04h.18l.02-.03-.02.03h-.18l.02-.19.1-.18-.3-.05-.1-.07v-.1l-.04-.07.04.06v.12h-.06l-.05-.02.02-.15-.02.15-.19-.12-.1.02-.15-.13-.1-.1h-.1l-.02-.1.16-.05.1-.07.17-.38.27-.1h.17l.04.09-.04.23-.05.1.05-.1.04-.23-.04-.09.04-.05.16-.02.05.06.12-.13-.05-.09-.01-.14-.1-.15-.01-.26.03-.06.05-.08.17-.01.06-.07.15-.07.01.12-.06.09.03.07.11.03-.04.1-.06-.03-.13.19.06.12.01.1.21.06v.09l.2-.05.1-.07.24.1.1.08.14-.07.3-.12.24-.09.2.05.02.06h.2l.03-.1.26-.1-.07-.2-.02-.2.07-.15.17-.1.19.2h.15v-.35l-.06.04-.14-.1-.04-.14.23-.06.23-.04.22.04h.2l.18-.14-.22-.12-.34.02-.32.09-.3.05-.13-.13-.2-.08v-.24L26 2.42l.07-.14.14-.16.37-.25.1-.06-.03-.1-.27-.1-.3.06-.14.17.05.14-.26.2-.33.2-.09.34.16.17.2.14-.14.28-.2.06-.02.42-.08.24-.25-.03-.09.2-.22.02-.09-.25-.18-.28-.18-.36.07-.14.14-.16-.14.16-.07.14-.14-.15-.36.29-.26.06-.27-.13-.08-.26-.08-.57.17-.15.47-.2.35-.25.3-.33.37-.46.27-.17.43-.28.36-.1.28.01.22-.18h.3l.3-.04.57.17-.2.06.23.14.15-.08.32.14.5.05.74.26.17.1.07.16-.16.12-.27.07-.85-.18-.13.03.34.17.05.1.08.25.25.08.16.05v-.1l-.15-.11.1-.09.47.15.14-.06-.18-.17.34-.23.17.01.2.08.04-.16-.2-.14.04-.14-.19-.14.52.08.15.12-.2.03.04.13.17.08.25-.05-.01-.15.32-.1.52-.2h.14l-.11.14.22.03.1-.08h.32l.2-.1.28.14.11-.15-.25-.14.05-.07.55.07.27.07.79.26.04-.12-.24-.12-.04-.05-.22-.02v-.1l-.2-.18-.06-.07.19-.2-.03-.2.1-.04.47.05.12.13-.03.18.15.06.16.16.16.3.28.15.02.15-.14.33.22.03.02-.08.16-.06-.02-.11.08-.11-.19-.14-.01-.14-.2-.02-.13-.13-.01-.23-.35-.17.2-.15-.15-.16h.07l.18.12.09.2.2.05-.18-.16.21-.09h.34l.4.12-.3-.18-.2-.23.25-.05.4.01.33-.03-.23-.1.05-.15h.18l.2-.1.4-.04-.02-.05.4-.02.18.05.22-.11h.3l-.07-.09.04-.08.26-.08zm-4.4 23.2l.08.12.06.11.04.18.02.33.06.12-.03.13-.05.08-.07-.16-.05.08.03.2-.03.11-.06.07-.04.22-.11.32-.14.37-.18.5-.12.39-.13.3-.2.07-.21.12-.13-.08-.17-.1-.05-.13v-.24l-.07-.22v-.2l.05-.19.1-.04.02-.1.12-.2.03-.17-.04-.12-.04-.17v-.25l.1-.15.03-.18h.12l.13-.06.1-.05h.1l.14-.16.2-.16.08-.14-.02-.11.1.03.13-.19.02-.16.08-.12zm-3.57-.68l-.02.05v.03l.07.17v.33l-.06.15.06.2v.11l.05.08-.01.1.04.06.04-.07.08.1v-.03l-.04-.14-.04-.01v-.04l-.03-.3.07-.26.08-.01-.08.01-.08-.1-.01-.29-.12-.14zM53.6 19.1l.38.1.03.11.06.43.24.17.2-.3.29-.15h.2l.2.1.18.09.25.05.41.19.43.15.16.14.12.13.03.16.38.17.05.14-.22.03.04.18.2.17.12.3.14-.02-.02.12.17.05-.07.05.24.11-.04.08-.16.02-.05-.07-.2-.03-.23-.04-.17-.17-.12-.15-.1-.24-.3-.12-.2.08-.16.09.02.2-.2.1-.13-.06h-.24l-.2-.22-.23-.06-.07.08h-.3l.12-.21.16-.08-.05-.3-.1-.22-.44-.23-.2-.02-.34-.25-.08.13-.09.02-.05-.1v-.11l-.17-.13.26-.1h.17l-.02-.06h-.35l-.09-.16-.2-.05-.1-.14.31-.06.13-.1zm-1.4 2.13l.1.03-.1.07-.25.12-.21.08-.17.2-.21.06-.03-.03.03-.1.12-.16.24-.1.04-.07.2-.06h.17l.08-.04zM29 19.76l.06.13v.04l-.05.43.07.15-.04.12.07.19.15.14.03.15.06.07v.05l-.05-.01.04.01-.02.06.08.02.05.06.05-.02-.02-.05v.01l.1.05.15.05-.15-.05-.1-.05-.12-.28-.01-.17-.2-.18.06-.1-.04-.11v-.12l-.04-.03.02-.12h.02-.02v-.01l-.09-.26v-.04l-.06-.13zm18.29.83l.28.01.19.1.1.03.03.1.45.02.06-.1.43.12.08.18.35.04.28.16-.28.1-.25-.1h-.22l-.24-.01-.22-.05-.27-.1-.17-.03-.1.03-.43-.1-.03-.13-.22-.01.18-.26zm10.97-.47l.05.04-.02.15-.09.16-.12.03-.05.07-.13.07-.13.06h-.12l-.2-.08-.12-.07.02-.08.21.03.13-.02.05-.13h.03l.02.14.13-.02.08-.1.13-.1-.01-.15h.14zm-13.52-2.6l.15.02.37.05.22.26.2.18.13.12.23.28h.24l.2.2.15.22.18.12-.1.22.14.1h.08l.04.19.08.15.17.02.11.17-.07.34-.03.41-.26.01-.2-.23-.29-.21-.1-.17-.16-.22-.12-.2-.17-.38-.21-.22-.07-.23-.1-.21-.21-.17-.13-.23-.19-.16-.26-.3-.02-.13zm7.11 1.04l.05.05-.19.27-.18.06-.23-.06-.4.02-.2.04-.04.2.21.24.13-.13.45-.08-.02.12-.1-.04-.12.16-.2.1.2.34-.04.1.2.31-.01.18-.13.08-.1-.1.14-.22-.24.1-.06-.07.04-.1-.17-.16.03-.26-.16.08v.7l-.16.04-.1-.08.09-.25-.03-.26h-.1l-.06-.19.1-.17.04-.22.12-.4.05-.11.2-.2.19.07.3.04h.27l.23-.2zm-1.95-1.43l.13.14.02.12.16.07.2.08v.1l-.17.02.05.13-.17.1-.21-.05h-.27l-.07.3-.07.08.07-.07.07-.31h.27l.21.04-.12.25.18.25-.04.13.27.25-.28.03-.08.18.01.25-.23.18-.01.27-.1.41-.04-.1-.28.13-.08-.17-.17-.02-.12-.08-.28.1-.09-.13-.15.01-.2-.03-.02-.36-.12-.08-.11-.23-.04-.23.03-.25.14-.18.17.1.19-.06.04-.23.1-.05.28-.06.16-.21.11-.17.1-.1.18-.15v.31-.31l.18-.18.1-.22h.1zm-19.87 1.78l-.1.06-.15.04-.1.16v.1h-.26l-.07.03.07-.03h.26v.17l-.05.19.07.1.1-.06.14-.02.03.04.13-.07-.1-.1.09-.12.12-.12.02-.2-.06-.1-.02-.02-.12-.05zm22.5-.5l.02.15.14.02.03.12-.01.23-.12-.03-.04.17.1.14-.07.03-.1-.17-.07-.34.04-.22.08-.1zm-.72-2.04l.2.13.03.13.03.1.03.18.03.15-.06.25-.11-.27-.1.13.09.2-.06.13-.29-.16-.08-.2.06-.13-.16-.12-.06.11-.12-.01-.16.15-.05-.08.08-.23.15-.07.11-.1.1.12.18-.07.03-.12.16-.01-.03-.2zm-10.73-.02l.18.15.12.2.13.27-.03.28-.1.08-.2.06-.12-.21-.06-.39.08-.44zm10.38-.38v.26l-.08.1-.06.16-.07.08-.16-.18.04-.08.05-.07.02-.17.12-.02-.02.18.16-.26zm0-.35h.23l.07.1.1.3-.19-.07.02.1.07.16-.1.06-.04-.19-.07-.01-.05-.17.14.02-.01-.1-.17-.2zm-.94-1.6l.16.07.06-.07.03.07-.01.1.11.2-.02.23-.13.09v.21l.08.22.13.03.1-.04.32.16v.14l.08.07-.01.12-.2-.13-.11-.14-.05.1-.17-.16-.2.04-.13-.06v-.11l.06-.08-.08-.05-.02.1-.14-.16-.05-.12-.05-.26.11.09-.04-.42.03-.25h.14zM5 13.64h.15l.2.05.03-.05h.18l.13.07h.06l.04.1.13-.01-.02.08H6l.1.1-.09.11-.1-.05h-.19l-.05.05-.09.01-.02-.07-.09.04-.11.19-.06-.04v-.16.08l-.15-.05-.12.02-.13-.02-.12.05-.12-.08.03-.09.21.04.18.02.09-.06-.1-.12.02-.1-.14-.04.05-.07zm42.86-.05H48l.07.1-.09.12-.02.16-.19.13-.2-.09-.05-.23.1-.12.24-.07zM3 12.76l.2.02h.18l.21.1.08.1.22-.04.08.07.18.17.12.12h.08l.14.05-.03.07.17.02.16.1-.03.07-.16.03-.16.02-.16-.03-.33.03.17-.15-.09-.07-.15-.02-.07-.07-.03-.16-.14.01-.2-.07-.07-.05-.3-.05-.07-.05.1-.07-.23-.01-.19.14h-.1l-.03.07-.13.03-.09-.03.13-.08.07-.1.11-.06.13-.05.17-.03.06-.03zm47.23-.57l.12.09v.16l-.05.43-.06.22-.17-.23-.06-.2.08-.26.14-.2zm2.67-4.34l.34.37.12.22-.06.27.16.28.02.22.1.14-.02.2-.23.12-.38.02-.19.3-.2-.1-.1-.2-.36.06-.2.13h-.27l.31.2.03.46-.1.11-.15-.1-.04-.24-.17-.08-.17-.19.18-.08.05-.17.16-.14.08-.19.41-.08.27.06v-.49l.2.13.2-.27.07-.1-.04-.34-.22-.3V7.9l.2-.05zm-.67 1.9l.2.06.06.1-.05.16-.13-.09-.1.06.01.16-.18-.08-.05-.12.06-.16.14.03.04-.11zM25.54 8.7l-.06.21.03.09-.03.14-.18-.1-.12-.03-.31-.14.02-.15.27.03.22-.03.16-.02zm7.35-2.33l-.21.11-.19.06-.06.15-.2.05-.14.27.25.25.02.17.3.31.15.14.15.19h.1l.09.08-.18.02v.21l-.01.1-.07.06.03.13-.06.02.06-.02.1.2.23.06.18.14.32.05.33-.07.01-.07.19-.05.13-.16h.14l.06-.03-.06.04-.14-.01-.13.16-.19.05-.07-.2-.03-.28-.2-.09.02-.19-.15-.01v-.22l.23.06.16-.09-.2-.15-.1-.15-.15.06.02.2-.1-.17-.03-.07.03-.1-.07-.1-.27-.08-.15-.24-.14-.07-.03-.08.22.03-.04-.2.17-.04.2.04-.03-.25-.08-.17-.21.01-.2-.06zM20.32 7.6l.05.14h.13l.04-.04.12.01.06.13-.1.07-.01.21-.04.04-.01.13-.1.02.09.16-.07.18.08.08-.04.07-.08.1.02.1-.1.07-.11-.04-.12.03.04-.22-.02-.17-.1-.02-.04-.1.02-.18.1-.1.01-.1.06-.16V7.9l-.04-.1v-.08l.07-.07.1-.04zm3.8.29l.14.18-.02.36-.1-.02-.09.1-.08-.08-.02-.32-.06-.15h.12l.1-.07zM6.03 6.96l-.28.18-.04-.02-.08.03-.08.06-.08-.05-.2.04-.16.03-.08.03-.1.1.08.02.07-.02h.01v.08l-.2.03-.13.03-.07.04-.1-.02-.08.01-.12.07-.19.09-.11-.02-.12.1.12.06h.1l.17-.03.16-.07.12-.04.2-.07.24-.16v-.02l.01-.08.11-.03h.17l.17.03.2-.08.02-.1-.01-.04.28-.18zm46.25-.2l.44.27.23.1.19.05.07-.11.25.29-.27.07-.01.26-.46-.18.07.29h-.25l-.19-.26-.03-.2.22-.01-.18-.36-.08-.2zM4.34 6.5l-.06.04.06.1-.2.03-.16-.03-.18.05-.16.02-.2.17-.12.1.02.03.23-.17h.02l-.19.2-.12.18-.1.15-.03.13-.03.06-.03.07v.14l.01.01h.08l.07-.03.06-.03.14-.13.07-.17v-.16l.05-.11.11-.13.1-.09.1-.06-.01.09.09-.13.06-.03.07-.1.16.05.11.1-.03.13-.07.11-.16.1-.01.07h.04l.18-.11.07.03-.02.15-.03.1.17-.08.05-.07.03-.13.16-.14.04-.17.04.17.16.03.1-.09-.05-.2-.04-.08-.17-.05-.16-.03H4.5l-.14-.03-.02-.06zM50.6 4.47l.2.17.3.24.21.26.3.26.58.46-.37-.08.15.38.4.26.13.2-.27-.17v.2l-.2-.22-.15-.25-.24-.29-.1-.2-.27-.34-.33-.26-.29-.35.08-.12-.18-.12.05-.03zM3.77 5.87l-.06.04-.08.06-.14.04-.13.1-.25.1-.2.1-.2.11-.01.04.23-.06.09.1.2-.07.2-.1.23-.07-.14.14.11.03.1.1.22-.06.21-.02.02.07.06.01.08-.09-.08-.03.08-.1-.05-.08.08-.07-.22-.04v-.15l-.04-.04h-.14l-.17-.06zm6.94-.7l.09.01-.06.07-.16.16-.21.23.16-.08.12.05-.1.1.17.06.11-.06.18.08-.12.2.16-.05-.01.14.02.16-.15.24h-.1l-.12-.05.1-.21-.05-.04-.3.23h-.13l.18-.13-.18-.06-.23.01h-.4l-.01-.09.16-.09-.07-.07.22-.16.35-.41.17-.15.21-.1zm-14.96.22l.17.06.1.04.18.03v.09l.02.12.14.11-.01.14-.13.04-.27-.12v-.09l-.12-.1.02-.07-.18-.04.02-.14.06-.07zm25.78-2l-.21.27.2-.03h.21l-.05.2-.18.23.2.02.02.02.17.3.14.04.12.3.05.1.25.04-.02.17-.1.07.08.14-.18.14h-.28l-.35.06-.1-.05-.13.13-.2-.03-.14.1-.1-.06.3-.27.18-.06-.31-.04-.06-.1.22-.08-.11-.14.04-.17.3.02.03-.14-.13-.16-.24-.05-.05-.07.08-.11-.06-.07-.11.12v-.25l-.1-.12.08-.26.16-.2.15.01.23-.02zm-.76.87l.21.16-.11.18-.15-.06h-.12.12l.15.06.03.18-.17.23-.37.15-.28-.04.18-.27-.1-.26.3-.2.15-.12h.16zM17.23-2l1.1.02.84.12-.28.06h-.55l-.77.03.05.02.52-.02.4.06.3-.05.1.06-.19.1.39-.07.71-.06.43.03.07.08-.62.12-.1.04-.47.03.34.01-.21.14-.15.12-.05.21.15.14H19l-.28.07.27.1v.19l-.18.02.17.18-.37.01.18.09-.08.08-.23.03h-.23l.17.14-.02.1-.3-.09-.1.06.2.06.2.13.02.18-.3.04L18 .5l-.18-.12.02.15-.22.12h.45l.23.02-.5.2-.52.18-.53.07h-.2l-.2.1-.3.24-.44.16-.13.01-.26.06-.27.05-.2.15-.06.17-.14.15-.36.2v.19l-.14.2-.17.24-.28.01-.2-.2H13l-.13-.13-.03-.24-.2-.3-.03-.16.06-.2-.16-.23.15-.17-.09-.08.3-.27.3-.08.1-.1.13-.18-.23.08-.12.04-.16.03-.18-.08.06-.15.13-.12h.16l.32.06-.23-.14-.1-.08-.2.04-.1-.06.3-.2-.07-.08-.04-.16-.06-.22-.15-.08.06-.09-.34-.12-.32-.02-.43.01-.4.02-.13-.07-.15-.13.46-.06.31-.01-.61-.05-.27-.09.1-.07.65-.1.63-.08.12-.07-.35-.06.2-.08.62-.12.22-.02.01-.08.38-.04.46-.02h.44l.11.05.45-.1.3.07h.19l.26.06-.28-.08.06-.08.54-.09h.49l.21-.05.5-.01zM8.13-.15L7.89 0l.01.14.3-.18.5-.09.09.23-.14.14.38-.06.22-.1.29.12.15.1-.05.1.35-.05.08.14.35.09.1.09.03.21-.38.1.32.15.25.06.14.21.27.01-.14.17-.45.27-.17-.1-.16-.23-.25.03-.1.14.12.14.19.1.04.07v.24l-.15.17-.2-.06-.36-.2.15.2.11.16v.08l-.46-.1L9 2.34l-.16-.11.1-.07-.2-.13-.2-.1-.04.06-.55.04-.1-.08.23-.18h.34l.39-.04-.01-.08.13-.11.37-.23.01-.1-.02-.09-.2-.1-.3-.08.16-.06-.09-.14-.14-.01-.08-.08-.14.07-.33.02L7.58.7l-.3-.06L7.02.6 6.95.53l.26-.1h-.24L7.1.18l.3-.2.25-.08.47-.06zM6.7 1.67l.11.02-.03.1.12-.04.06.07.14.08.16.07-.06.12.15-.02.08.08-.2.07-.26-.05-.03-.11-.26.12-.35.13.03-.14-.26.02.24-.12.15-.18.21-.22zm12.53-.19l.29.02-.06.15.19.16-.26.18-.55.17-.16.04-.24-.03-.5-.08.2-.1-.37-.12.33-.05v-.07l-.37-.05.16-.16.27-.03.25.16.3-.13.2.07.32-.13zM3.22-.04l.12.04-.2.1.44-.06.11.1.31-.1.07.07-.09.21.18-.09.12-.22.18-.04.13.04.09.09-.12.21-.1.15.18.11.21.11-.1.1-.3.02.03.09-.14.08-.28-.04-.24-.06-.21.02-.4.07-.48.04-.32.02v-.1L2.25.84l-.17.03L2.04.7l.14-.03.3-.04.23.02.27-.05L2.7.55l-.38.02h-.24V.48l.5-.1L2.3.4 2.08.34 2.4.18l.22-.09.6-.13zm2.13.7l.12.06.07.04.01.04.04.09-.18.08L5.24.9l-.16.03-.15-.1.21-.08.2-.1zM32.7-.8l.18.08-.06.06-.48.1-.41.1-.37.2-.12.22-.14.2.14.19.42.18-.1.01-.56-.03-.1-.1-.33-.05-.08-.12.14-.05-.07-.12L31-.1l-.16-.03.28-.18-.11-.1.29-.11.43-.13.5-.04.2-.08.28-.02zM2.49-.28l.17.04.4.01.08.06.07.1-.27.05-.59.15-.38.15-.11.1-.57.1.03-.1-.25-.1.18-.1.31-.16.32-.14.02-.13.6-.03zm3.28.13l.15.04.32-.03-.02.07-.26.1.16.1-.21.19-.36.09-.14-.03L5.37.3 5.12.13 5.2.06l.32.03-.04-.14.3-.1zM6.8-.22l.33.01.26.05-.43.2-.24.03-.32.17h-.2l.07-.2.1-.1.19-.1.22-.06zM9-.14l.36.02.19.12-.03.06h-.35l-.2.02-.04-.01-.09-.12.08-.07L9-.14zM5.03-.77l.14.02-.08.1-.03.07.18-.03h.16l-.1.1-.22.1-.58.04-.52.1h-.25l.07-.07.45-.1-.76.03-.17-.04.5-.2.22-.06.35.07.12.12.25.02.03-.2.24-.07zm2.1-.08l.3.01.1.07h.3l.06.07-.12.08.13.04.05.05.2.01.22.02.3-.05.34-.01h.24l.1.09-.04.08-.15.06-.28.05-.18-.03-.5.03h-.33L7.63-.3l-.36-.07.07-.11.1-.1-.07-.1-.3-.02-.1-.06.16-.09zm36.84.21l.43.01.76.11.13.16h-.6l-.2.04-.52-.13-.15-.15.15-.04zM6.74-.76l.01.1-.12.1-.24.16-.29.02-.13-.03.14-.13-.28.02.18-.16h.16l.32-.06.2.01.05-.03zM4.25-.95l-.24.16-.22.07-.17.01-.41.1-.3.02-.15-.04.5-.16.5-.13H4l.25-.03zm7.66-.99l.3.01.29.01.36.01.28.02.22.04-.05.05-.4.07-.39.03-.16.04h.31l-.44.1-.28.05-.4.15-.33.03-.14.04-.47.02.19.02-.14.04.03.1-.21.06-.29.05-.15.08-.28.06-.02.05h.27l-.04.04-.53.13-.36-.06-.5.03-.2-.03h-.29l.09-.1.34-.05L8.6-1h.1l.33.07-.08-.12-.2-.04.2-.07.33-.05.11-.07-.12-.07.04-.1.4.02.1.01.3-.06-.3-.02-.53.01-.19-.06-.03-.07-.1-.05.04-.05.25-.04h.17l.32-.03.28-.06.17.01.1.04.2-.08.22-.03.27-.01.44-.01.06.01.43-.02zm12.71.53l.2.07.53.14-.36.08-.05.14-.12.04-.04.16-.19.01-.35-.12.12-.07-.24-.06-.32-.16-.13-.15.39-.07.1.06h.2l.05-.06h.21zm-18.29.14l.26.03.32.07v.1L6.84-1l-.22-.02-.17-.06-.32-.01.22-.06-.12-.05.1-.07zm31.04 0h.13l.53.12.06.07-.76.08-.05-.25.09-.03zM8.73-1.63l.07.1.2.03.2.04-.03.11.11.07-.27.05-.44.15-.29.01L8-1.08l-.07-.08.09-.07.18-.05h-.27l-.09-.06.01-.08.21-.08.17-.06.17-.01-.01-.04h.34zm27.27 0l.4.09.58.17.19.17-.3.03-.5-.06-.33-.07-.28-.13-.24-.04.22-.12.26-.04zm-10.54.1l.39.05.3.06-.17.1-.43.03-.45-.03-.04-.06h-.21l-.19-.08.44-.05.23.04.13-.05zM9.52 18.44l.09-.1.08-.2.15-.24.08-.01.05.14.13.48.12.04v.19l-.17.22.07.08.42.04.01.27.18-.17.3.1.4.16.12.16-.04.14.28-.08.46.14h.35l.36.22.3.3.19.08h.2l.1.09.08.34.04.17-.09.44-.1.18-.34.37-.13.3-.17.24h-.06l-.06.2.04.5-.04.43-.02.17-.06.11-.02.36-.22.35-.03.28-.17.11-.05.17h-.25l-.36.1-.15.12-.26.08-.25.21-.17.27-.02.2.06.15-.01.27-.04.13-.14.15-.2.47-.16.22-.13.12-.07.26-.12.15-.09-.15.08-.13-.16-.18.16.18-.08.13.09.15-.07.17-.22.15-.18-.05-.11.03-.23-.12-.15.01-.17-.15.01.14.33.23v.2l.17.11.02.14-.14.35-.3.14-.43.06-.24-.03.08.16v.2l.08.14-.1.1-.22.03-.23-.1-.07.07.1.26.18.08.1-.08.1.13-.18.08-.12.17.05.26v.14h-.2l-.13.13v.2l.28.2.22.05v.23l-.2.15-.02.3-.14.11-.04.13.17.26.2.16-.1-.02h-.17l-.07.06-.15.1.08.24H7.8l-.27-.08-.31-.18-.32-.15-.14-.16v-.15l-.18-.18-.21-.45-.01-.25.14-.2-.35-.08.12-.23-.09-.43.27.09-.07-.54-.17-.07.04.33-.14-.04-.07-.37-.08-.5.05-.18-.14-.26-.1-.31.09-.01.02-.45.05-.43v-.4l-.13-.4.02-.23-.09-.33.08-.33-.03-.52v-1.17l-.06-.44-.1-.38.12-.07.05-.14.07.1-.07-.1-.05.14-.11.07-.25-.16-.03-.1-.5-.28-.44-.29-.2-.16-.12-.23.04-.07-.23-.36-.27-.5-.25-.53-.1-.13-.09-.2-.19-.17-.17-.1.07-.13-.12-.25.06-.2.19-.16.12-.2-.05-.12-.1.12-.14-.11.05-.08-.04-.25.08-.04.04-.16.1-.18-.02-.1.13-.07.16-.1.24.15h.04-.04l-.24-.15-.03-.09.09-.02v-.13l.05-.1.12-.02.1-.17.1-.14-.09-.06.05-.16-.04-.25.05-.06-.03-.23-.1-.15-.07-.07-.04-.15.06-.07-.06-.02-.04-.09-.11-.08-.1.02-.06.1-.1.06-.05.01-.03.06.1.14-.05.04-.04.04-.11.01-.04-.16-.03.05-.08-.02-.04-.1-.1-.03-.05-.03h-.1l-.02.06-.02-.04-.13-.06-.04-.05.03-.05v-.06l-.07-.06-.1-.06-.07-.03-.01-.08-.06-.05v.08l-.04.07-.05-.08-.07-.02-.03-.06v-.09l.04-.08-.06-.04.05-.05.04-.03.15.07.06-.03.07.02-.07-.02-.06.03-.15-.07-.04.03-.07-.08-.1-.11-.05-.1-.1-.08-.1-.12.03-.04.03.04.02-.02-.03-.08-.07-.03-.03.07h-.14l-.08-.03-.1-.06-.12-.02-.06-.05-.12-.05H.59l-.1-.06-.12-.1-.23-.3-.11-.09-.19-.06-.13.01-.2.1-.12.03-.16-.07-.17-.05-.2-.12-.17-.04-.25-.13-.18-.12-.05-.08-.13-.01-.23-.09-.08-.12-.22-.15-.1-.17-.03-.13.08-.03-.01-.08.07-.07.01-.09-.06-.12v-.1l-.05-.14-.16-.27-.2-.21-.07-.17-.18-.11-.03-.06.08-.17-.1-.07-.11-.13-.01-.18-.12-.03-.1-.14-.07-.13.02-.09-.06-.2-.02-.2.04-.1-.13-.11h-.08l-.1-.06-.08.1v.13l-.05.2.05.12.11.18.02.06.03.02v.1h.05v.17l.05.06.02.1.11.14.02.25.05.11.03.13-.01.14.1.01.08.13.06.12-.02.05-.11.1h-.04l-.03-.17-.13-.15-.14-.14-.1-.06.05-.2V12l-.1-.08-.13-.12-.03.03-.05-.07-.12-.06-.1-.16.03-.02.09.02.11-.1.04-.13-.12-.19-.1-.07-.04-.17-.03-.18-.03-.21-.01-.24.27-.02-.27.02.01-.14-.09-.15-.09-.03v-.08l-.11-.02-.06-.07-.2-.03-.04-.04.04-.15-.1-.27-.02-.39.03-.06-.06-.1-.06-.22.08-.22-.04-.14.16-.23.12-.22.05-.2.23-.24.17-.24.17-.24.17-.35.08-.23.02-.12.06-.05.24.09-.04.25.1-.07.1-.22.06-.21h-.03l-.23-.26-.06-.11-.3-.11.06-.23.15-.16-.17-.11.13-.2-.09-.2.1-.13-.02-.09-.1-.08.13-.22-.06-.2.11-.24-.17-.02h-.3l-.16-.08-.14-.25-.13-.05-.25-.09-.28.02-.25-.11-.11-.1-.27.05-.15.17-.12.01-.28.06-.26.08-.27.05.14-.15.35-.24.28-.07.02-.06-.39.13-.31.17-.47.17v.12l-.37.18-.32.1-.28.08-.17.11-.44.14-.2.11-.33.11-.12-.02-.26.07-.3.09-.25.08-.42.08.02-.05.34-.11.28-.08.36-.14.27-.03.21-.1.44-.15.1-.05.24-.1.24-.18.26-.15-.3.08-.02-.05-.2.1.01-.13-.15.09.07-.13-.3.1h-.13l.16-.15.14-.09-.02-.09-.3.05-.03-.1-.06-.06.17-.14v-.1l.24-.15.32-.13.22-.13.18-.01.07.04.3-.12.1.02.24-.07.1-.11-.04-.05.25-.08h-.12l-.26.05-.12.05-.07-.05-.3.03-.19-.06.05-.1-.04-.14.39-.1.55-.1h.14l-.18.1h.4l.04-.15-.1-.09.04-.11-.03-.1-.14-.07.27-.12h.32l.37-.11.2-.11.33-.1.2-.03.47-.1.13.01.44-.12.18.05-.02.1.14-.04.27.01-.09.05.21.04.2-.02.27.07.3.02.09.03.28-.04.17.07.15.03-1.03.86-.74.67.74-.67 1.03-.86.25.06.14.1.15.03.26-.1.3-.07.22.03.37-.1.35-.06.01.1.19-.06.16-.1.1.02.05.2.4-.15L.7.82.96.8 1.1.72l.2.01.15.1.32.08.2.04.19-.02.11.12-.36.11.28.05.5-.02.18-.04.06.14.3-.12-.09-.1.19-.08.22-.01.16-.02.09.05.06.13.21-.02.22.1.3-.03h.25l.1-.14.2-.04.2.08-.18.22.26-.19h.14L5.83.9 5.76.76l-.12-.1.23-.24.34-.16.2.03.07.1.02.26-.24.1.28.05-.19.23.37-.18.1.15-.18.17.05.16.3-.17.28-.2.2-.25.23.02.23.04.15.1L8 1l-.22.12.04.13-.1.1-.46.17-.27.04-.14-.07-.13.11-.32.2-.12.1-.32.17-.28.01-.21.1-.12.16-.24.03-.37.2-.4.27-.2.2-.2.28.25.04-.07.24-.03.19.3-.05.3.1.14.1.07.12.2.07.16.1.31.03.2.02-.14.22-.08.25v.3l.2.24.19-.08.24-.27.09-.4-.07-.14.38-.12.32-.18.2-.17.07-.17-.02-.21-.14-.2.38-.25.04-.23.16-.38.17-.05.27.07.18.02.2-.07.12.09.15.14v.1l.33.01-.1.21-.1.3.16.05.06.15.35-.14.31-.28.18-.11.04.22.11.32.09.3-.15.15.2.15.13.14.29.07.1.08v.22l.14.03.05.1-.09.29-.18.1-.17.08-.37.1-.33.21-.37.04-.42-.05h-.3l-.23.02-.24.18-.3.12-.43.35-.33.24.2-.04.45-.35.52-.22.32-.03.14.13-.26.18-.03.29v.2l.24.12.36-.03.3-.3-.04.2.11.09-.32.17-.5.15-.25.1-.3.19-.15-.02.06-.22.44-.22h-.34l-.25.04v.09l-.26.13-.25.08-.25.08-.17.16-.06.05-.05.14.03.14h.09v-.09l.05.06-.04.07-.16.05h-.1l-.18.04-.1.01-.13.01-.2.08.33-.05.05.05-.33.08h-.14l.02-.03-.1.07.07.02-.1.19-.23.2v-.06l-.04-.02-.05-.07v.15l.04.05-.02.1-.1.1-.2.22h-.01l.12-.2-.08-.1.04-.22-.08.11v.18l-.13-.05.12.1-.06.26.06.01v.1l-.04.27-.2.2-.25.08-.19.17-.12.01-.14.1-.05.1-.3.17-.15.12-.15.16-.08.2v.18l.03.23.06.19-.02.11.05.32-.04.18-.03.1-.08.17-.07.03-.11-.03-.02-.12-.08-.06-.08-.23-.07-.2-.01-.11.08-.18-.03-.15-.13-.22-.08-.05-.26.13-.04-.02-.08-.12-.13-.07-.26.04-.2-.03-.18.01-.1.05.02.07-.03.1.04.06-.05.03-.08-.03-.1.05-.16-.01-.14-.15-.2.04-.15-.06-.15.02-.21.06-.26.2-.25.11-.16.13-.08.12-.04.19-.02.13.03.1-.13.23-.08.19-.08.36-.04.13.02.15.05.13.02.21.12.2.03.15.08.14.24.07.08.11.21-.07.18-.03.19-.05.15-.04.16-.11.08-.16.05-.23.05-.08.17-.07.25-.06h.2l.15-.01.05.05-.02.13-.15.16-.08.17.04.05-.05.11-.08.21-.06-.07h-.05v.05h.05l-.02.07-.05.12.01.04-.03.1.01.02-.04.14-.06.07h-.04l-.06.1.07.05.03-.04.06.03-.12.1-.12.08.12-.08.12-.1.03.01.05-.04h.07l.02.02.04-.02.1.03.11-.01.08-.03.03-.03.08.01.05.02h.07l.04-.03.1.04h.04l.07.05.06.06.08.05.06.07-.03.03-.01.06v.1l-.05.09-.04.1-.02.12.01.07v.12l-.04.03-.03.12v.07l-.04.07v.07l.04.04.05.15.08.1.1.12.08.1v.05l.1.02.01-.02.07.06.11-.02.1-.07.16-.05.08-.08.13.02-.01.02.13.01.1.05.08.08.08.07.13.01.18-.19.1-.02v-.1l.07-.22.14-.13h.15l.02-.06.18.02.2-.13.1-.06.12-.13.08.01.06.08-.05.09-.02.06-.14.03.08.13-.02.13-.11.16.08.21.1-.01.06-.2-.06-.1v-.2l.3-.1-.03-.13.09-.09.07.2h.17l.14.15.01.09h.21l.26-.03.13.12.17.03.14-.08v-.07l.3-.01h.28l-.2.07.08.13.18.02.18.13.03.22h.12l.1.05-.2.16-.03.1.08.1-.06.05-.04.01h.04l.06-.06-.08-.1.03-.1.2-.16.14.1.15.18v.14h.09l.12.13.09.1.28.05.03-.04.2-.03.25.08.08.03.17.06.25.23.04.1-.15.25-.08.2-.09.1-.11.03.11-.03zM22.45 5.35l-.06.21-.48.2-.2-.1.06.29-.34-.07-.27.06.01.2.32.1.15.13.22.27-.04.52-.12.16.09.1.4.12.07-.06.24.12.26-.03.02-.16.31-.08.43.06.19-.14.02-.11-.12-.04-.06-.2.07-.08-.06-.1v-.07l-.07-.11-.1.03v-.12l.14-.14v-.07l.1.02.05-.04.02-.19.1-.18-.3-.05-.1-.06h-.06l-.05-.02-.19-.12-.1.02-.15-.13-.1-.1h-.1l-.02-.1-.18.06zM24 7.53l-.04.1.06.17.1.05.07-.2-.05-.22-.14.1zm-3.92-.1l.09.1-.02.19.08-.07.1-.04.04.14h.13l.04-.04h.12l.06.14-.1.07-.01.21-.04.04-.01.13-.1.02.09.16-.07.18.08.08-.04.07-.08.1.02.1.2.04.06.16.08.09.11.02.09-.1.14-.1h.5l.15-.2.17-.06.05-.18.13-.12-.09-.16.09-.21.13-.15.02-.1.28-.05.2-.17-.01-.15-.25.03-.25-.12-.08.06-.4-.12-.08-.1-.35-.01-.17.01-.23-.04h-.29l-.26-.05-.32.2zm2.88.77v.02l.02.01.07.03v-.02l-.01-.03L23 8.2h-.04zm-.2.04l-.04.02-.09.06v.02h.02l.01.02.02-.02h.02l.02.01v.03h.03l.04.03.02-.01.02-.02v-.02l.02-.02.01-.02.01-.02v-.02h-.07v-.02h.01v-.03l-.06.01zm-17.2 7.38l.01.02.01.02h.02v-.01l-.02-.03-.01-.01zm1.75-1.51l.04-.01v-.01l-.04.02zm15.12-6.58l-.01.02v.02h.03l.03-.01v-.02l-.03-.01h-.02zM4.15 11.76h.03l.07.02.03.06.02.02v.05l-.02.02v.03l-.02.02-.03.02h.02l.01.03h.01l.01-.01.02-.08.03-.02v-.06l-.02-.02H4.3v-.02h-.01l-.01-.01-.02-.03-.02-.02H4.2l-.02-.01-.02.01zm-.17.05v.02l-.02.01h-.02l-.03-.02H3.9l.03.04H4l.07-.03h.07v-.02h-.13L4 11.79v.02zm.39.32v.01l-.02.02h.04l.03.02.03.01v.03l.03.02v.03l-.01.02v.03h-.03v.01l.01.01v.02h.02v-.05l.03-.06v-.01l-.02-.02-.03-.03-.03-.02-.03-.03-.02-.02zm-.36.1v.07l-.03.04v.02l-.02.03v-.02h-.02l.01.03.03.02H4v.01l.01.02v.02l.02-.02h.03v-.01l.03-.02v-.03l.01-.03-.02-.03-.01-.04v-.04l-.02-.01-.02-.02H4zm.56.13l.01.03v.01l.01.01.02.05.02.01v.02H4.6v.02h.04v-.02l-.04-.06-.02-.07h-.02zm-.49.11h-.04l-.02.02.02.03.01.01v.05h.01v.03h.05l.01-.03v-.09l-.03.02-.01-.01.02-.02v-.01h-.02zm.55.19v.03l.02.03v.04h-.01v.01l.01.01.04.02.02.05v-.04l-.02-.02-.02-.01v-.06l-.02-.03v-.02l-.02-.03v.02zm.28.23v.07h-.02l-.01.01-.02.02-.03.03-.01.01h.01l.03-.03.03-.01.04-.05v-.06h-.02zm.14.4l-.02.02h-.01l-.03-.01h-.02l-.02.02h-.03v.05H5l.05-.01.03-.04.01-.02.01-.03h-.01l-.03.03zm2.4-3l-.02.02-.02.01h.03l.02-.03zm.58 5.14v.04l.03.02.02-.02-.01-.02-.03-.03zm24.32 6.64v.02l-.02.08.02.03h.01l.02.02.01-.02v-.03l-.02-.03v-.06h-.02zM16.52 14.9v.09h.03l.02.01.02-.02-.02-.04h-.01l-.03-.03v-.02h-.01zm-8.87-.08v.1l.03-.01.01-.03v-.04l-.01-.02-.03-.01zm2.4 17.95l.02.02-.03.03v.03l.02.01v.01l-.02.01h-.01v.02l-.05.04H10l-.01.03v.02l.04.03.03.01V33h.05l-.03-.04h.01l.1.02v-.02l-.01-.02.06-.02.02-.01v-.02h.03l.04-.01v-.02h-.02l-.02-.01v-.02h.02l-.03-.03h-.07v.02l.02.02-.05-.02-.02-.02h.02v-.02h-.07l-.03-.01h-.02zm-.1.03h-.1l-.02.02h-.04l-.04-.02-.01-.01h-.02l.02.01v.01l.01.01.03.01.02.02.02.01-.04.02h-.02.07v.02l-.01.01-.02.01-.02.02h-.04l-.03.03.04.02.03.01h.06l.01-.03v-.02h.07l.02-.04.02-.04v-.02h.02v-.03H10v-.02h-.02l-.01-.01-.01.01zM20.78 2.5l.03.05.03.03h.02l-.02-.03v-.01h.03l.01-.02-.03-.01-.03-.01h-.04zM7.53 15.72l-.02.03v.03h.01l.02-.02.01-.04h-.02zm41.13-2.79h-.01l-.01.01v.01l-.02.02V13h.06l.03.01v-.05l-.01-.01h-.04zM7.74 15.22l-.01.01-.02.03v.04l.02.01.02-.03v-.07h-.01zM24.1 6.34v.02h.02v-.03h-.01V6.3l-.01.03zM7.5 14.48l-.02.02v.01h.02v-.03zm28.06 9.92l-.02.01v.02l-.03.02-.01.04v.02h-.01v.02h.07l.02-.02v-.01l.02-.02v-.06l-.02-.03h-.02zm24.87.04v.09l.03.04v.02l.02.03.02.02.01.02.04.06v.02l.02.02.05.05.01.01.02.01.04.03.02.01.02.03h.02l.04.03v.02l.03.03h.02V25h.03l.04.03h.05L61 25v-.05l-.03-.02-.03-.02-.02-.02-.01-.02-.04-.04-.04-.05h-.02l-.02-.02-.02-.02-.02-.01-.01-.03-.03-.02v-.04l-.02-.01v-.02l-.01-.02h-.02l-.03-.02-.07-.08-.03-.03h-.05l-.03-.04v.01zm.66.15l.02.01v.01l-.02.03h-.02v.03l.02.01.03.01v.02h.02l.01-.02v-.04l-.01-.01.01-.05-.02-.01-.04.01zm.73-5.45l-.01.01h.01zm-69.47 6.42v.02h.01v-.02h-.01zM6.39 14.02h-.01v.03h-.02l-.01.01v.02l.02.02v.02l-.01.04v.01h.29l.04-.02.01-.03h.02l.02-.02v-.04H6.7l-.02-.02H6.6l-.15-.01-.06-.01h.01zM-13 23.73v.03l.03.02.02.01h.03l.02.02.02.01v-.03l-.04-.02v-.02l-.02-.02h-.05zm59.77-5.1l-.01.02.04.02.04-.02v-.02h-.07zm12.47 2.17v.03l.05.04.05.07.04.04h.05V21l.03.02.02-.02h-.01v-.01h-.02l-.01-.01-.03-.03-.01-.02-.01-.04-.02-.02-.06-.03-.03-.03-.03-.01zm.46.25l.02.02v.03l.02.01.03.03.01.01.02.02.03.02.04.03.02.01.07.03.02.03.03.02v-.02l-.02-.02.02-.02-.1-.08-.03-.01-.02-.02h-.02l-.02-.02v-.01l-.03-.02-.03-.03-.06-.02v.01zm-.26.11l-.02.03-.01.02-.02.01v.03h.01l.01-.01h.05v.01l.01.03.01.02h.02l.02.03v-.01h.01l.01-.02-.01-.05-.01-.02-.03-.01v-.05l-.03-.02-.02.01zm.77.09h-.03v.01l.03.05-.02.02.02.1.02.04.03.04.03.03.03.05h.01v-.03l-.02-.04v-.06l-.01-.04-.03-.03h-.01v-.04l.01-.02-.05-.08h-.01zm-.28.27l-.01.04v.02l.01.03.01.02h.02v.02h.13l.04.02.04.01h.02l.02-.01v-.03l-.01-.01-.02-.01v-.03l-.03-.01-.03-.03H60l-.04-.04h-.03zm.41.04v.06h.01l.02.02v-.04l-.02-.07h-.01v.03zm-.05.2v.03h.03l.01.01v.03h.01v.02l.05.04.03.02h.03l.02.01h.06l-.02-.01v-.02l-.02-.05-.01-.01h-.05l-.03-.02v-.01h-.02l-.03-.03-.02-.01h-.03zm-.35.35v.02h.02l.01.01.03.01.02.01v.03h.05v-.01l-.03-.02-.08-.05-.02-.01zM7.3 14.14l.01.01h.01-.02zm27.96 6.11l.01.01.01.01v.02h.02v-.02l-.02-.03-.02.01zM7.66 16.1h-.03l-.04.01-.02.01h-.03l-.02.01.02.02h.01v.01l.01.02-.01.07-.03.01v.01l-.07.04h.17l.04-.02v-.03l.02-.02-.01-.02v-.1l.03-.03h-.04zM29.8 9.4l-.03.02h-.01l-.04.02-.1.04h-.1l-.04-.01v.05l-.03.01h-.05l-.02.02-.01.01-.03-.01.01.03.03.05v.01l.02.01.05.02h.04l.01.02h.02v-.02l.02-.02h.06l.02-.03.04-.04h.08l-.01-.02-.02-.03-.01-.01V9.5l.11-.08.02-.02-.03.01zM35 24.64v.03h-.02l.02.06.06.03h.05v-.02l.01-.04-.01-.03-.02-.03h-.02l-.03-.01-.03.01zm-2.26-2.2l.01.01v.05h.02v-.03l.01-.03h-.01l-.02-.02-.01.01zM7.7 15l-.01.01v.01l.01.04h.01l.02.02-.02.01v.02h.05v.01l.01-.02v-.03l-.02-.02v-.01L7.73 15H7.7zm-.1-.4l-.02.02v.06l.02.03.02-.01.01-.01v-.07l-.03-.02zm-1.65 1.1v.02h.02v.05l.02-.03v-.03l-.04-.02v.02zm13.07-4.56v.02h-.03l-.04.02v.02l-.01.03h.01l.02-.01.03-.01.03-.01v-.07.01zm-.1.13h-.02v.03l-.04.06-.02.05-.03.02-.03.01.04.01.03-.03.07-.02v-.04l.02-.05v-.04h-.01zm-.55.04l-.05.05h-.07l-.02.01v.02l.02.04.03.04.03-.01.01-.01.02-.03.02-.06.05-.04v-.01h-.04zm.2.11h-.06l-.01.03-.02.02v.03l.02.03h.03l.03-.01.01-.02v-.07z" mask="url(#b)" opacity=".65"/><path fill="#2C283A" fill-rule="nonzero" d="M44 1a3 3 0 013 3v24a3 3 0 01-3 3H4a3 3 0 01-3-3V4a3 3 0 013-3h40zm0-1H4a4 4 0 00-4 4v24a4 4 0 004 4h40a4 4 0 004-4V4a4 4 0 00-4-4z" opacity=".08"/><circle cx="24" cy="16" r="10" fill="#F6F4F9"/><path fill="#DF2357" d="M31.07 8.93c.24.24.46.49.67.74L17.67 23.74a10.12 10.12 0 01-1.41-1.41L30.33 8.26c.25.2.5.43.74.67zm-1.55-1.27L15.66 21.52A10 10 0 0129.52 7.66zm2.82 2.83A10 10 0 0118.5 24.34z"/></g></svg>