<svg xmlns="http://www.w3.org/2000/svg" xmlns:xlink="http://www.w3.org/1999/xlink" viewBox="0 0 48 32"><defs><path id="a" d="M0 0h10v10H0z"/></defs><g fill="none" fill-rule="evenodd"><g fill-rule="nonzero"><rect width="48" height="32" fill="#197F4A" rx="4"/><path fill="#FF8500" d="M4 0h40a4 4 0 014 4v6H0V4a4 4 0 014-4z"/><path fill="#F6F4F9" d="M0 10h48v12H0z"/></g><g transform="translate(19 11)"><mask id="b" fill="#fff"><use xlink:href="#a"/></mask><path fill="#233CCC" d="M9.23 6.13l-.1.34a.22.22 0 00-.17.4l-.17.32-2.2-1.44-.81-.35a.73.73 0 00.05-.13l.82.33 2.58.53-2.5-.82-.87-.13.01-.13.88.1L9.37 5l-2.62-.15-.88.1-.01-.13.87-.13 2.5-.82.07.34a.22.22 0 00.06.44 4.14 4.14 0 010 .7.22.22 0 00-.24.2c-.01.11.07.22.18.24l-.07.34M8.6 7.5a.22.22 0 00-.27.34 4.22 4.22 0 01-.5.5.22.22 0 00-.34.27l-.3.19L6 6.44l-.52-.7.1-.1.55.7L8.1 8.1 6.34 6.13l-.7-.54a.93.93 0 00.1-.11l.7.53L8.8 7.19c-.06.1-.12.2-.2.3M6.88 8.95a.22.22 0 00-.28-.11.22.22 0 00-.12.28c-.1.04-.22.08-.34.1L5.6 6.66l-.33-.82a.8.8 0 00.13-.05l.35.81 1.44 2.2-.32.16M5.8 9.3a.22.22 0 00-.44.06 4.57 4.57 0 01-.7 0 .22.22 0 00-.44-.06 4.95 4.95 0 01-.34-.07l.82-2.5.13-.87.13.01-.1.88L5 9.38l.15-2.63-.1-.88.13-.01.13.87.82 2.5-.34.07M3.4 8.84a.22.22 0 00-.28.11L2.8 8.8l1.44-2.2.35-.81a.8.8 0 00.13.05l-.33.82-.53 2.58a4.58 4.58 0 01-.34-.1.22.22 0 00-.12-.29m-.94-.54a.22.22 0 00-.3.03 4.55 4.55 0 01-.26-.24l1.96-1.75.54-.7.11.1-.52.7L2.8 8.79a2.6 2.6 0 01-.3-.2.22.22 0 00-.04-.3m-.77-.76a.22.22 0 00-.3-.04l-.19-.3L3.56 6l.7-.53.1.1-.7.55L1.9 8.1a4.58 4.58 0 01-.24-.26c.09-.07.1-.2.03-.3m-.54-.94a.22.22 0 00-.28-.12 4.14 4.14 0 01-.18-.68c.11-.02.2-.13.18-.25a.22.22 0 00-.24-.19 4.17 4.17 0 010-.7c.12 0 .22-.07.24-.2a.22.22 0 00-.18-.24l.07-.34 2.5.82.87.13a.88.88 0 00-.01.14l-.88-.11L.62 5l2.63.15.88-.1.01.13-.87.13-2.5.82 2.58-.53.82-.33.05.13-.81.35-2.2 1.44-.16-.32c.1-.04.16-.17.11-.28m.05-3.78l2.2 1.45.81.34a.85.85 0 00-.05.13l-.82-.33-2.58-.53.1-.34c.12.04.24-.01.3-.12a.22.22 0 00-.12-.28l.16-.32m.2-.3a.22.22 0 00.26-.34 4.58 4.58 0 01.5-.5c.07.09.2.1.3.03.1-.07.11-.2.04-.3l.3-.19L4 3.56l.52.7a.99.99 0 00-.1.1l-.55-.7L1.9 1.9l1.75 1.96.7.54a.83.83 0 00-.1.11L3.57 4 1.21 2.8c.06-.1.12-.2.2-.3m1.72-1.46c.04.1.17.16.28.11a.22.22 0 00.12-.28c.11-.04.22-.08.34-.1l.53 2.57.33.82a.91.91 0 00-.13.05l-.35-.81-1.44-2.2.32-.16M4.2.7c.02.11.13.2.25.18.12-.02.2-.12.19-.24a4.56 4.56 0 01.7 0A.22.22 0 005.8.7l.34.07-.82 2.5-.13.87a.79.79 0 00-.14-.01l.11-.88L5 .63l-.15 2.62.1.88-.13.01-.13-.87-.82-2.5L4.2.7m2.38.46a.2.2 0 00.28-.11l.32.16-1.44 2.2-.35.81a.91.91 0 00-.13-.05l.33-.82.53-2.58.34.1c-.04.12.01.24.12.29m.94.54c.1.08.23.06.3-.03.1.07.18.15.26.24L6.13 3.66l-.54.7a.9.9 0 00-.11-.1l.52-.7L7.2 1.2c.1.06.2.12.3.2-.07.09-.05.22.04.3m.77.76c.07.1.2.11.3.04l.19.3L6.44 4l-.7.52a.93.93 0 00-.1-.1l.7-.55L8.1 1.9c.09.08.17.17.24.26-.09.07-.1.2-.03.3m.54.94c.05.1.17.16.28.12.04.11.08.22.1.34l-2.57.53-.82.33a.75.75 0 00-.05-.13l.81-.34L8.8 2.8l.16.32a.22.22 0 00-.11.28M5 0a5 5 0 100 10A5 5 0 005 0" mask="url(#b)"/></g><path fill="#2C283A" fill-rule="nonzero" d="M44 1a3 3 0 013 3v24a3 3 0 01-3 3H4a3 3 0 01-3-3V4a3 3 0 013-3h40zm0-1H4a4 4 0 00-4 4v24a4 4 0 004 4h40a4 4 0 004-4V4a4 4 0 00-4-4z" opacity=".08"/></g></svg>