<svg xmlns="http://www.w3.org/2000/svg" viewBox="0 0 48 32"><g fill="none"><path fill="#233CCC" d="M44 0H4A4 4 0 00.47 2.16a4 4 0 00-.26.61c0 .1-.07.2-.09.3-.02.1 0 .17-.05.26C.03 3.55 0 3.78 0 4v24a4 4 0 004 4h40a4 4 0 004-4V4a4 4 0 00-4-4z"/><path fill="#FF1744" d="M14.55 6.48h-1.03V0h-3.04v6.48H0v3.04h10.48V16h3.04V9.52H24V6.48z"/><path d="M9.45 4.45L3 .15A4 4 0 001.42 1L8 5.36H6.23L.74 1.7a4 4 0 00-.27.47l4.8 3.2H0v1.11h10.48V0h-1l-.03 4.45zM0 9.52v1.12h5.27L0 14.16V16h.05l8.02-5.36h1.38v.27L1.82 16h.97l6.66-4.45V16h1.03V9.52H9.45zm13.52 0V16h1.03v-4.45L21.23 16h2.75l-8.05-5.36h1.78L24 14.83v-.68l-5.26-3.51H24V9.52h-9.45zM24 .01l-8.01 5.35h-1.44v-.23L22.24 0h-1.03l-6.66 4.45V0h-1.03v6.48H24V5.36h-5.27L24 1.84z" fill="#F6F4F9"/><path fill="#FF1744" d="M9.45 10.64H8.07L.05 16h1.77l7.63-5.09zM22.24 0l-7.69 5.13v.23h1.44L24 .01V0zM.74 1.7l5.49 3.66H8L1.42 1a4 4 0 00-.68.7zm15.19 8.94L23.98 16H24v-1.17l-6.29-4.19zM35.08 7l.92-.72.92.72-.35-1.16.92-.72h-1.14L36 3.96l-.35 1.16h-1.14l.92.72z"/><path fill="#F6F4F9" d="M37.15 6l.65-.51 1.15-.89h-2.23l-.24-.8L36 2.24l-.48 1.58-.24.8h-2.22l1.15.89.65.51-.25.83-.46 1.51 1.24-1 .61-.44.61.48 1.24 1-.45-1.54-.25-.86zM36 6.28l-.92.72.35-1.16-.92-.72h1.14L36 4l.35 1.16h1.14l-.92.72.35 1.12-.92-.72z"/><path fill="#FF1744" d="M30.35 14L30 12.84 29.65 14h-1.14l.92.72-.35 1.16.92-.72.92.72-.35-1.16.92-.72z"/><path fill="#F6F4F9" d="M31.15 14.9l.65-.51 1.15-.89h-2.23l-.24-.8-.48-1.58-.48 1.58-.24.8h-2.22l1.15.89.65.51-.25.83-.46 1.51 1.24-1 .61-.48.61.48 1.24 1-.46-1.51-.24-.83zm-1.15.26l-.92.72.35-1.16-.92-.72h1.14l.35-1.16.35 1.16h1.14l-.92.72.35 1.16-.92-.72z"/><path fill="#FF1744" d="M36.35 25L36 23.84 35.65 25h-1.14l.92.72-.35 1.16.92-.72.92.72-.35-1.16.92-.72z"/><path fill="#F6F4F9" d="M37.15 25.9l.65-.51 1.15-.89h-2.23l-.24-.8-.48-1.58-.48 1.58-.24.8h-2.22l1.15.89.65.51-.25.83-.46 1.51 1.24-1 .61-.48.61.48 1.24 1-.46-1.51-.24-.83zm-1.15.26l-.92.72.35-1.16-.92-.72h1.14l.35-1.16.35 1.16h1.14l-.92.72.35 1.16-.92-.72z"/><path fill="#FF1744" d="M42.49 11h-1.14L41 9.84 40.65 11h-1.14l.92.72-.35 1.16.92-.72.92.72-.35-1.16z"/><path fill="#F6F4F9" d="M42.15 11.9l.65-.51 1.15-.89h-2.23l-.24-.8L41 8.12l-.48 1.58-.24.8h-2.22l1.15.89.65.51-.25.83-.46 1.51 1.24-1 .61-.48.61.48 1.24 1-.46-1.51-.24-.83zm-1.15.26l-.92.72.35-1.16-.92-.72h1.14L41 9.84l.35 1.16h1.14l-.92.72.35 1.16-.92-.72z"/><path fill="#2C283A" d="M44 1a3 3 0 013 3v24a3 3 0 01-3 3H4a3 3 0 01-3-3V4a3 3 0 013-3h40zm0-1H4a4 4 0 00-4 4v24a4 4 0 004 4h40a4 4 0 004-4V4a4 4 0 00-4-4z" opacity=".08"/></g></svg>