<svg xmlns="http://www.w3.org/2000/svg" viewBox="0 0 48 32"><g fill="none"><rect width="48" height="32" fill="#197F4A" rx="4"/><path fill="#F6F4F9" d="M4 0h12v32H4a4 4 0 01-4-4V4a4 4 0 014-4z"/><g fill="#FFF"><path d="M38.13 18.93A7.76 7.76 0 1127.82 7.34l.42-.34a8.46 8.46 0 1010.28 11.57l-.39.36z"/><path d="M33.9 8.73l3.56 4.01-5.24-1.15 4.92-2.15-2.71 4.63z"/></g><path fill="#2C283A" d="M44 1a3 3 0 013 3v24a3 3 0 01-3 3H4a3 3 0 01-3-3V4a3 3 0 013-3h40zm0-1H4a4 4 0 00-4 4v24a4 4 0 004 4h40a4 4 0 004-4V4a4 4 0 00-4-4z" opacity=".08"/></g></svg>