<svg xmlns="http://www.w3.org/2000/svg" viewBox="0 0 48 32"><g fill="none"><path fill="#197F4A" d="M8.92 0H3.9A4 4 0 000 3.44L17.94 15.4 0 28.56A4 4 0 003.9 32h5.02l16.03-12H48v-8H24.95L8.92 0z"/><path fill="#F6F4F9" d="M14 0H9l16 12h23V9H26z"/><path fill="#FF1744" d="M44 0H14l12 9h22V4a4 4 0 00-4-4z"/><path fill="#F6F4F9" d="M9 32h5l12-9h22v-3H25z"/><path fill="#233CCC" d="M14 32h30a4 4 0 004-4v-5H26l-12 9z"/><path fill="#FFDA00" d="M.1 4c-.05.18-.08.37-.1.56v2.71l13 8.63-13 9.5v3.05c0 .19.03.38.06.56L18 15.9.1 4z"/><path fill="#2C283A" d="M0 7v18l13-9.43z"/><path fill="#2C283A" d="M44 1a3 3 0 013 3v24a3 3 0 01-3 3H4a3 3 0 01-3-3V4a3 3 0 013-3h40zm0-1H4a4 4 0 00-4 4v24a4 4 0 004 4h40a4 4 0 004-4V4a4 4 0 00-4-4z" opacity=".08"/></g></svg>