<svg xmlns="http://www.w3.org/2000/svg" xmlns:xlink="http://www.w3.org/1999/xlink" viewBox="0 0 48 32"><defs><path id="c" d="M0 .3h24.98v28.27H0z"/><path id="e" d="M0 29.47h24.98V1.19H0z"/><rect id="a" width="48" height="32" x="0" y="0" rx="4"/></defs><g fill="none" fill-rule="evenodd"><mask id="b" fill="#fff"><use xlink:href="#a"/></mask><use fill="#8C2830" fill-rule="nonzero" xlink:href="#a"/><g fill="#2C283A" fill-rule="nonzero" mask="url(#b)" opacity=".08"><path d="M44 1a3 3 0 013 3v24a3 3 0 01-3 3H4a3 3 0 01-3-3V4a3 3 0 013-3h40zm0-1H4a4 4 0 00-4 4v24a4 4 0 004 4h40a4 4 0 004-4V4a4 4 0 00-4-4z"/></g><g mask="url(#b)"><g transform="translate(12 1)"><g transform="translate(0 .9)"><mask id="d" fill="#fff"><use xlink:href="#c"/></mask><path fill="#8B2830" d="M24.08 14.63a25.92 25.92 0 01-1.14-5.82c0-1.41 1.28-3.09 1.28-3.09L19.58 1.5s-1.92.88-3.26.73C15.1 2.08 12.37.3 12.37.3S9.88 2.08 8.66 2.22c-1.34.15-3.5-.76-3.5-.76L.71 5.7s1.2 1.93 1.2 3.34c0 1.42-.59 4.51-1.03 5.82-.4 1.16-1.1 3.38-.8 4.57a6.51 6.51 0 002.82 3.95c1.59.9 4.16 2.08 4.83 2.45.67.37 3.8 1.78 4.76 2.75.97-.97 4.09-2.38 4.76-2.75.67-.37 3.24-1.55 4.83-2.45a6.5 6.5 0 002.83-3.95c.3-1.19-.38-3.54-.83-4.8" mask="url(#d)"/></g><path fill="#F6BF00" d="M22.28 9.51c0-.7.94-2.9.94-2.9s-3.08-2.83-3.76-3.36c0 0-1.92.7-3.42.5-1.5-.2-3.65-1.69-3.65-1.69s-2.37 1.59-3.53 1.72c-1.27.14-3.47-.6-3.47-.6L1.62 6.75s1 1.91 1 3.25-.66 4.63-1.11 5.78c-.43 1.09-1.09 3.17-.8 4.3a6.18 6.18 0 002.68 3.73c1.5.86 3.95 1.98 4.58 2.33.64.36 3.6 1.7 4.52 2.61.92-.91 3.88-2.25 4.52-2.6.63-.36 3.07-1.48 4.58-2.34a5.9 5.9 0 002.75-3.74c.36-2.21-2.06-6.47-2.06-10.56"/><path fill="#58BBE6" d="M22.84 15.82a26.5 26.5 0 01-1.2-5.74c0-1.27.8-3.17.8-3.17L19.37 4s-2.24.56-3.44.43c-1.1-.13-3.44-1.47-3.44-1.47S10.15 4.3 9.05 4.44C7.85 4.57 5.61 4 5.61 4L2.54 6.9s.8 1.91.8 3.18c0 1.27-.73 4.74-1.2 5.74-.15.32-.32.75-.46 1.2h21.57c-.13-.44-.28-.85-.41-1.2"/><path fill="#0093D3" d="M1.68 17.02c-.3.96-.52 2.09-.34 2.8a5.86 5.86 0 002.53 3.55c1.43.8 3.75 1.87 4.35 2.2.6.34 3.4 1.6 4.27 2.47.87-.87 3.67-2.13 4.27-2.47.6-.33 2.91-1.4 4.34-2.2a6.03 6.03 0 002.54-3.54c.17-.6-.08-1.76-.39-2.8H1.68z"/><path fill="#009A40" d="M9.22 12.4s-1.3-.66-3.06-.22a9.35 9.35 0 012.12-1.24s-1.67-1.1-3.95.74c.05-.72.94-2 3.56-2.73-.61 0-2.17-.1-2.95.28.61-.67 2.28-1.67 3.23-1.72 0 0-.8-.4-1.8-.11 0 0 1.48-.9 2.15-.8 0 0-.21-.64-.69-.76 0 0 .87.12 1.42.62a5.04 5.04 0 011.64-.57c.06 0-.6.35-.6.68.38.12 1.55.38 1.89.77-.76-.07-1.35-.11-1.8.17.5.1 2.68.5 3.57 2.06-1.16-.4-2.83-.62-3.33-.45.6.17 3.17.67 3.67 2.23-.75-.4-3.05-1.19-3.9-.73.84.4 1.9.95 2.23 1.78-1.1-.37-2.56-.5-3.4 0M6.85 24.33h11.43s-.52-5.79-5.79-5.79-5.64 5.8-5.64 5.8"/><path fill="#F6BF00" d="M18 12.37c1.66 0 3-1.27 3-2.84a2.92 2.92 0 00-3-2.84c-1.67 0-3.02 1.27-3.02 2.84 0 1.57 1.35 2.84 3.01 2.84"/><path fill="#804423" d="M9.63 23.88s-2.19-5.11-.85-11.64h.78s-1.08 6.08 1.67 11.65h-1.6z"/><mask id="f" fill="#fff"><use xlink:href="#e"/></mask><path fill="#F6BF00" mask="url(#f)" d="M13.23 22.4h.45v-6.97h-.45zm.99 0h.44v-6.97h-.44zm.98 0h.45v-6.97h-.44zm-1.84-6.97h2.18v-.45h-2.18z"/></g></g></g></svg>